<?xml version="1.0" encoding="UTF-8"?>
<!DOCTYPE svg PUBLIC "-//W3C//DTD SVG 1.1//EN" "http://www.w3.org/Graphics/SVG/1.1/DTD/svg11.dtd">
<svg xmlns="http://www.w3.org/2000/svg" version="1.1" width="300px" height="300px" style="shape-rendering:geometricPrecision; text-rendering:geometricPrecision; image-rendering:optimizeQuality; fill-rule:evenodd; clip-rule:evenodd" xmlns:xlink="http://www.w3.org/1999/xlink">
<g><path style="opacity:1" fill="#29467c" d="M -0.5,-0.5 C 99.5,-0.5 199.5,-0.5 299.5,-0.5C 299.5,99.5 299.5,199.5 299.5,299.5C 199.5,299.5 99.5,299.5 -0.5,299.5C -0.5,199.5 -0.5,99.5 -0.5,-0.5 Z"/></g>
<g><path style="opacity:1" fill="#f5f6f7" d="M 75.5,46.5 C 76.1667,46.5 76.5,46.1667 76.5,45.5C 77.4933,36.6822 77.8266,27.6822 77.5,18.5C 75.2646,18.2053 73.2646,18.5386 71.5,19.5C 70.8333,19.5 70.5,19.8333 70.5,20.5C 68.7868,21.6354 68.1201,23.302 68.5,25.5C 67.1667,25.5 65.8333,25.5 64.5,25.5C 64.5,22.1667 64.5,18.8333 64.5,15.5C 76.1667,15.5 87.8333,15.5 99.5,15.5C 99.5,18.8333 99.5,22.1667 99.5,25.5C 98.1667,25.5 96.8333,25.5 95.5,25.5C 95.0699,20.006 92.0699,18.006 86.5,19.5C 86.3336,28.1731 86.5002,36.8397 87,45.5C 88.049,47.1066 89.549,47.7733 91.5,47.5C 91.5,48.5 91.5,49.5 91.5,50.5C 85.1667,50.5 78.8333,50.5 72.5,50.5C 72.5,49.5 72.5,48.5 72.5,47.5C 73.791,47.7373 74.791,47.404 75.5,46.5 Z"/></g>
<g><path style="opacity:1" fill="#f0f1f4" d="M 105.5,15.5 C 111.167,15.5 116.833,15.5 122.5,15.5C 122.5,16.5 122.5,17.5 122.5,18.5C 121.5,18.5 120.5,18.5 119.5,18.5C 120.275,24.3315 121.775,29.9981 124,35.5C 126.727,29.3206 129.06,22.9872 131,16.5C 132.388,15.4464 133.888,15.2797 135.5,16C 138.524,22.7354 141.358,29.5688 144,36.5C 145.815,30.8937 147.315,25.227 148.5,19.5C 145.5,19.8333 144.167,18.5 144.5,15.5C 148.5,15.5 152.5,15.5 156.5,15.5C 155.313,17.9053 153.813,20.2387 152,22.5C 149.386,32.1677 146.886,41.8344 144.5,51.5C 142.712,51.7852 141.045,51.4519 139.5,50.5C 136.667,43.5 133.833,36.5 131,29.5C 127.808,36.5747 125.308,43.908 123.5,51.5C 121.833,51.5 120.167,51.5 118.5,51.5C 116.183,41.3788 113.35,31.3788 110,21.5C 109.009,20.0611 107.676,19.0611 106,18.5C 105.517,17.552 105.351,16.552 105.5,15.5 Z"/></g>
<g><path style="opacity:1" fill="#f8f8f9" d="M 162.5,15.5 C 168.833,15.5 175.167,15.5 181.5,15.5C 181.5,16.5 181.5,17.5 181.5,18.5C 179.61,18.2965 178.11,18.9632 177,20.5C 176.333,28.8333 176.333,37.1667 177,45.5C 178.049,47.1066 179.549,47.7733 181.5,47.5C 181.5,48.5 181.5,49.5 181.5,50.5C 175.167,50.5 168.833,50.5 162.5,50.5C 162.5,49.5 162.5,48.5 162.5,47.5C 164.39,47.7035 165.89,47.0368 167,45.5C 167.667,37.1667 167.667,28.8333 167,20.5C 165.89,18.9632 164.39,18.2965 162.5,18.5C 162.5,17.5 162.5,16.5 162.5,15.5 Z"/></g>
<g><path style="opacity:1" fill="#f3f4f6" d="M 216.5,32.5 C 216.833,33.1667 217.167,33.8333 217.5,34.5C 217.783,35.2891 218.283,35.9558 219,36.5C 219.816,31.3158 219.65,26.3158 218.5,21.5C 218.5,20.8333 218.167,20.5 217.5,20.5C 215.721,19.3303 214.721,17.6636 214.5,15.5C 218.833,15.5 223.167,15.5 227.5,15.5C 227.264,17.9732 225.931,19.6399 223.5,20.5C 222.501,30.8119 222.168,41.1452 222.5,51.5C 221.448,51.6495 220.448,51.4828 219.5,51C 212.967,43.6365 206.3,36.4698 199.5,29.5C 199.217,28.7109 198.717,28.0442 198,27.5C 197.501,33.1569 197.334,38.8236 197.5,44.5C 198.401,46.7271 200.067,47.7271 202.5,47.5C 202.5,48.5 202.5,49.5 202.5,50.5C 197.833,50.5 193.167,50.5 188.5,50.5C 188.406,47.4594 189.906,45.7928 193,45.5C 193.667,37.1667 193.667,28.8333 193,20.5C 191.644,19.6198 190.144,19.2865 188.5,19.5C 188.5,18.1667 188.5,16.8333 188.5,15.5C 192.514,15.3345 196.514,15.5012 200.5,16C 205.734,21.6712 211.067,27.1712 216.5,32.5 Z"/></g>
<g><path style="opacity:1" fill="#022671" d="M 70.5,20.5 C 70.5,19.8333 70.8333,19.5 71.5,19.5C 73.1667,19.5 74.8333,19.5 76.5,19.5C 76.5,28.1667 76.5,36.8333 76.5,45.5C 76.5,46.1667 76.1667,46.5 75.5,46.5C 71.5,46.1667 71.5,45.8333 75.5,45.5C 75.5,37.1667 75.5,28.8333 75.5,20.5C 73.8333,20.5 72.1667,20.5 70.5,20.5 Z"/></g>
<g><path style="opacity:1" fill="#7c85a2" d="M 71.5,19.5 C 73.2646,18.5386 75.2646,18.2053 77.5,18.5C 77.8266,27.6822 77.4933,36.6822 76.5,45.5C 76.5,36.8333 76.5,28.1667 76.5,19.5C 74.8333,19.5 73.1667,19.5 71.5,19.5 Z"/></g>
<g><path style="opacity:1" fill="#01196e" d="M 217.5,20.5 C 218.167,20.5 218.5,20.8333 218.5,21.5C 218.818,26.0323 218.485,30.3656 217.5,34.5C 217.167,33.8333 216.833,33.1667 216.5,32.5C 217.483,28.7016 217.817,24.7016 217.5,20.5 Z"/></g>
<g><path style="opacity:1" fill="#858da6" d="M 218.5,21.5 C 219.65,26.3158 219.816,31.3158 219,36.5C 218.283,35.9558 217.783,35.2891 217.5,34.5C 218.485,30.3656 218.818,26.0323 218.5,21.5 Z"/></g>
<g><path style="opacity:1" fill="#000368" d="M 199.5,29.5 C 198.833,34.5 198.167,39.5 197.5,44.5C 197.334,38.8236 197.501,33.1569 198,27.5C 198.717,28.0442 199.217,28.7109 199.5,29.5 Z"/></g>
<g><path style="opacity:1" fill="#9299af" d="M 74.5,58.5 C 86.8333,57.1667 99.1667,57.1667 111.5,58.5C 105.463,58.1707 99.4632,58.5041 93.5,59.5C 94.2427,60.1818 94.9094,60.8485 95.5,61.5C 93.5,61.5 91.5,61.5 89.5,61.5C 90.3984,60.8423 91.3984,60.1757 92.5,59.5C 86.5368,58.5041 80.5368,58.1707 74.5,58.5 Z"/></g>
<g><path style="opacity:1" fill="#9097ad" d="M 124.5,58.5 C 130.645,57.5098 136.978,57.1765 143.5,57.5C 143.768,59.099 143.434,60.4324 142.5,61.5C 142.5,60.5 142.5,59.5 142.5,58.5C 136.5,58.5 130.5,58.5 124.5,58.5 Z"/></g>
<g><path style="opacity:1" fill="#f1f1f4" d="M 43.5,57.5 C 51.1739,57.3336 58.8406,57.5003 66.5,58C 75.7628,61.0059 77.7628,66.5059 72.5,74.5C 67.934,77.227 62.934,78.227 57.5,77.5C 57.3347,81.1817 57.5014,84.8484 58,88.5C 59.3561,89.3802 60.8561,89.7135 62.5,89.5C 62.5,90.5 62.5,91.5 62.5,92.5C 56.1667,92.5 49.8333,92.5 43.5,92.5C 43.5,91.5 43.5,90.5 43.5,89.5C 44.8221,89.67 45.9887,89.3366 47,88.5C 47.6667,79.8333 47.6667,71.1667 47,62.5C 45.6439,61.6198 44.1439,61.2865 42.5,61.5C 42.4326,60.0413 42.7659,58.7079 43.5,57.5 Z"/></g>
<g><path style="opacity:1" fill="#f3f4f6" d="M 74.5,58.5 C 80.5368,58.1707 86.5368,58.5041 92.5,59.5C 91.3984,60.1757 90.3984,60.8423 89.5,61.5C 88.3631,70.4221 88.1965,79.4221 89,88.5C 91.6667,89.8333 94.3333,89.8333 97,88.5C 97.6667,79.8333 97.6667,71.1667 97,62.5C 96.6174,61.944 96.1174,61.6107 95.5,61.5C 94.9094,60.8485 94.2427,60.1818 93.5,59.5C 99.4632,58.5041 105.463,58.1707 111.5,58.5C 111.5,59.5 111.5,60.5 111.5,61.5C 109.856,61.2865 108.356,61.6198 107,62.5C 106.168,71.1858 106.335,79.8525 107.5,88.5C 114.476,90.7327 119.142,88.3994 121.5,81.5C 122.325,80.6143 123.325,80.281 124.5,80.5C 124.5,83.5 124.5,86.5 124.5,89.5C 125.822,89.67 126.989,89.3366 128,88.5C 128.667,79.8333 128.667,71.1667 128,62.5C 126.989,61.6634 125.822,61.33 124.5,61.5C 124.5,60.5 124.5,59.5 124.5,58.5C 130.5,58.5 136.5,58.5 142.5,58.5C 142.5,59.5 142.5,60.5 142.5,61.5C 140.62,61.2291 139.287,61.8958 138.5,63.5C 138.174,72.0168 138.507,80.3501 139.5,88.5C 146.714,91.0574 151.38,88.5574 153.5,81C 154.749,80.2599 155.749,80.4265 156.5,81.5C 156.337,83.8568 156.503,86.1902 157,88.5C 157.717,87.9558 158.217,87.2891 158.5,86.5C 162.5,78.4861 166,70.1528 169,61.5C 169.916,58.041 171.916,57.041 175,58.5C 178.743,69.0854 183.243,79.2521 188.5,89C 190.235,89.6514 191.902,89.4847 193.5,88.5C 194.665,80.1866 194.832,71.8533 194,63.5C 192.89,61.9632 191.39,61.2965 189.5,61.5C 189.5,60.1667 189.5,58.8333 189.5,57.5C 197.507,57.3336 205.507,57.5003 213.5,58C 220.526,59.8779 223.026,64.3779 221,71.5C 219.891,73.8147 218.057,75.3147 215.5,76C 218.388,79.2216 220.888,82.7216 223,86.5C 224.264,88.607 226.097,89.607 228.5,89.5C 228.5,86.5 228.5,83.5 228.5,80.5C 229.552,80.3505 230.552,80.5172 231.5,81C 233.541,88.7737 238.041,90.9403 245,87.5C 245.63,85.0966 244.797,83.2633 242.5,82C 237.387,79.6943 232.887,76.5277 229,72.5C 227.002,61.5005 231.502,56.6671 242.5,58C 243.5,58.5 244.5,59 245.5,59.5C 246.85,58.0499 248.516,57.3832 250.5,57.5C 250.5,61.1667 250.5,64.8333 250.5,68.5C 249.167,68.5 247.833,68.5 246.5,68.5C 245.736,62.608 242.402,60.4413 236.5,62C 235.065,64.2672 235.398,66.2672 237.5,68C 244.082,70.0295 249.248,73.8628 253,79.5C 253.51,90.316 248.344,94.816 237.5,93C 235.579,92.6397 233.912,91.8064 232.5,90.5C 229.869,91.7243 227.035,92.391 224,92.5C 221.5,92.3333 219,92.1667 216.5,92C 213.292,87.7529 210.458,83.2529 208,78.5C 206.644,77.6198 205.144,77.2865 203.5,77.5C 203.335,81.1817 203.501,84.8484 204,88.5C 205.356,89.3802 206.856,89.7135 208.5,89.5C 208.5,90.5 208.5,91.5 208.5,92.5C 196.5,92.5 184.5,92.5 172.5,92.5C 172.5,91.5 172.5,90.5 172.5,89.5C 173.833,89.5 175.167,89.5 176.5,89.5C 176.634,84.6346 174.301,82.6346 169.5,83.5C 164.492,82.5079 162.492,84.5079 163.5,89.5C 164.5,89.5 165.5,89.5 166.5,89.5C 166.5,90.5 166.5,91.5 166.5,92.5C 135.5,92.5 104.5,92.5 73.5,92.5C 73.5,91.5 73.5,90.5 73.5,89.5C 75.1439,89.7135 76.6439,89.3802 78,88.5C 78.6667,79.8333 78.6667,71.1667 78,62.5C 76.9887,61.6634 75.8221,61.33 74.5,61.5C 74.5,60.5 74.5,59.5 74.5,58.5 Z"/></g>
<g><path style="opacity:1" fill="#010c6b" d="M 61.5,61.5 C 60.791,62.404 59.791,62.7373 58.5,62.5C 58.5,65.8333 58.5,69.1667 58.5,72.5C 60.099,72.2322 61.4324,72.5655 62.5,73.5C 60.8333,73.5 59.1667,73.5 57.5,73.5C 57.5,69.5 57.5,65.5 57.5,61.5C 58.8333,61.5 60.1667,61.5 61.5,61.5 Z"/></g>
<g><path style="opacity:1" fill="#2b427c" d="M 89.5,61.5 C 91.5,61.5 93.5,61.5 95.5,61.5C 96.1174,61.6107 96.6174,61.944 97,62.5C 97.6667,71.1667 97.6667,79.8333 97,88.5C 94.3333,89.8333 91.6667,89.8333 89,88.5C 88.1965,79.4221 88.3631,70.4221 89.5,61.5 Z"/></g>
<g><path style="opacity:1" fill="#03036c" d="M 138.5,63.5 C 139.18,71.5681 139.847,79.7348 140.5,88C 140.272,88.3988 139.938,88.5654 139.5,88.5C 138.507,80.3501 138.174,72.0168 138.5,63.5 Z"/></g>
<g><path style="opacity:1" fill="#28437c" d="M 203.5,61.5 C 211.368,61.6541 213.702,65.4875 210.5,73C 208.19,73.4966 205.857,73.6633 203.5,73.5C 203.5,69.5 203.5,65.5 203.5,61.5 Z"/></g>
<g><path style="opacity:1" fill="#30487e" d="M 61.5,61.5 C 66.4353,65.1127 66.7686,69.1127 62.5,73.5C 61.4324,72.5655 60.099,72.2322 58.5,72.5C 58.5,69.1667 58.5,65.8333 58.5,62.5C 59.791,62.7373 60.791,62.404 61.5,61.5 Z"/></g>
<g><path style="opacity:1" fill="#37457f" d="M 168.5,72.5 C 170.39,74.5901 172.057,76.9235 173.5,79.5C 170.833,80.8333 168.167,80.8333 165.5,79.5C 166.788,77.2612 167.788,74.9279 168.5,72.5 Z"/></g>
<g><path style="opacity:1" fill="#000466" d="M 156.5,81.5 C 157.167,83.1667 157.833,84.8333 158.5,86.5C 158.217,87.2891 157.717,87.9558 157,88.5C 156.503,86.1902 156.337,83.8568 156.5,81.5 Z"/></g>
<g><path style="opacity:1" fill="#b7bbc8" d="M 144.5,108.5 C 111.167,108.5 77.8333,108.5 44.5,108.5C 44.5,112.833 44.5,117.167 44.5,121.5C 43.5139,117.03 43.1805,112.363 43.5,107.5C 77.3375,107.168 111.004,107.502 144.5,108.5 Z"/></g>
<g><path style="opacity:1" fill="#b9bdc9" d="M 152.5,108.5 C 185.996,107.502 219.663,107.168 253.5,107.5C 253.821,112.695 253.487,117.695 252.5,122.5C 252.5,117.833 252.5,113.167 252.5,108.5C 219.167,108.5 185.833,108.5 152.5,108.5 Z"/></g>
<g><path style="opacity:1" fill="#f3f4f6" d="M 144.5,108.5 C 144.666,113.179 144.499,117.845 144,122.5C 139.08,125.71 134.246,129.043 129.5,132.5C 128.333,174.496 128.167,216.496 129,258.5C 134,262.167 139,265.833 144,269.5C 144.499,274.155 144.666,278.821 144.5,283.5C 110.833,283.5 77.1667,283.5 43.5,283.5C 43.1734,278.786 43.5067,274.12 44.5,269.5C 49.1667,266.167 53.8333,262.833 58.5,259.5C 59.6666,217.171 59.8333,174.837 59,132.5C 53.9822,128.97 49.1489,125.303 44.5,121.5C 44.5,117.167 44.5,112.833 44.5,108.5C 77.8333,108.5 111.167,108.5 144.5,108.5 Z"/></g>
<g><path style="opacity:1" fill="#f4f5f6" d="M 152.5,108.5 C 185.833,108.5 219.167,108.5 252.5,108.5C 252.5,113.167 252.5,117.833 252.5,122.5C 247.547,125.613 242.714,128.946 238,132.5C 237.333,174.5 237.333,216.5 238,258.5C 243,262.167 248,265.833 253,269.5C 253.499,274.155 253.666,278.821 253.5,283.5C 219.833,283.5 186.167,283.5 152.5,283.5C 152.334,278.821 152.501,274.155 153,269.5C 157.714,265.946 162.547,262.613 167.5,259.5C 168.833,238.677 169.5,217.511 169.5,196C 169.5,174.664 169.167,153.497 168.5,132.5C 163.357,129.425 158.357,126.092 153.5,122.5C 152.507,117.88 152.173,113.214 152.5,108.5 Z"/></g>
<g><path style="opacity:1" fill="#2b487d" d="M 139.5,111.5 C 139.5,113.5 139.5,115.5 139.5,117.5C 108.833,117.5 78.1667,117.5 47.5,117.5C 47.5,115.5 47.5,113.5 47.5,111.5C 78.1667,111.5 108.833,111.5 139.5,111.5 Z"/></g>
<g><path style="opacity:1" fill="#2b487d" d="M 157.5,111.5 C 188.167,111.5 218.833,111.5 249.5,111.5C 249.5,113.5 249.5,115.5 249.5,117.5C 218.833,117.5 188.167,117.5 157.5,117.5C 157.5,115.5 157.5,113.5 157.5,111.5 Z"/></g>
<g><path style="opacity:1" fill="#000069" d="M 139.5,111.5 C 139.833,111.5 140.167,111.5 140.5,111.5C 140.5,113.833 140.5,116.167 140.5,118.5C 109.5,118.5 78.5,118.5 47.5,118.5C 47.5,118.167 47.5,117.833 47.5,117.5C 78.1667,117.5 108.833,117.5 139.5,117.5C 139.5,115.5 139.5,113.5 139.5,111.5 Z"/></g>
<g><path style="opacity:1" fill="#000069" d="M 157.5,111.5 C 157.5,113.5 157.5,115.5 157.5,117.5C 188.167,117.5 218.833,117.5 249.5,117.5C 218.671,118.498 187.671,118.831 156.5,118.5C 156.198,115.941 156.532,113.607 157.5,111.5 Z"/></g>
<g><path style="opacity:1" fill="#b1b5c3" d="M 140.5,111.5 C 141.473,113.948 141.806,116.615 141.5,119.5C 109.996,119.832 78.6622,119.498 47.5,118.5C 78.5,118.5 109.5,118.5 140.5,118.5C 140.5,116.167 140.5,113.833 140.5,111.5 Z"/></g>
<g><path style="opacity:1" fill="#334a80" d="M 52.5,123.5 C 80.3303,122.336 108.33,122.17 136.5,123C 133.167,125.333 129.833,127.667 126.5,130C 104.833,130.667 83.1667,130.667 61.5,130C 58.8239,127.334 55.8239,125.167 52.5,123.5 Z"/></g>
<g><path style="opacity:1" fill="#2b477d" d="M 235.5,129.5 C 213.294,128.813 190.961,128.146 168.5,127.5C 165.884,126.52 163.551,125.02 161.5,123C 189.167,122.333 216.833,122.333 244.5,123C 241.621,125.385 238.621,127.552 235.5,129.5 Z"/></g>
<g><path style="opacity:1" fill="#354480" d="M 168.5,127.5 C 190.961,128.146 213.294,128.813 235.5,129.5C 214.004,130.663 192.337,130.829 170.5,130C 169.619,129.292 168.953,128.458 168.5,127.5 Z"/></g>
<g><path style="opacity:1" fill="#b6b9c7" d="M 70.5,133.5 C 71.4986,174.997 71.832,216.663 71.5,258.5C 68.6146,258.806 65.9479,258.473 63.5,257.5C 63.8333,257.5 64.1667,257.5 64.5,257.5C 65.8333,257.5 67.1667,257.5 68.5,257.5C 68.8333,257.5 69.1667,257.5 69.5,257.5C 70.4986,216.67 70.832,175.67 70.5,134.5C 70.5,134.167 70.5,133.833 70.5,133.5 Z"/></g>
<g><path style="opacity:1" fill="#d0d3db" d="M 74.5,134.5 C 76.9479,133.527 79.6146,133.194 82.5,133.5C 82.832,175.003 82.4986,216.337 81.5,257.5C 81.5,216.5 81.5,175.5 81.5,134.5C 79.1667,134.5 76.8333,134.5 74.5,134.5 Z"/></g>
<g><path style="opacity:1" fill="#d4d6dd" d="M 92.5,134.5 C 90.1667,134.5 87.8333,134.5 85.5,134.5C 85.5,175.5 85.5,216.5 85.5,257.5C 84.5014,216.337 84.168,175.003 84.5,133.5C 87.3854,133.194 90.0521,133.527 92.5,134.5 Z"/></g>
<g><path style="opacity:1" fill="#d8dae0" d="M 168.5,132.5 C 169.167,153.497 169.5,174.664 169.5,196C 169.5,217.511 168.833,238.677 167.5,259.5C 168.494,217.239 168.827,174.906 168.5,132.5 Z"/></g>
<g><path style="opacity:1" fill="#d6d8df" d="M 215.5,134.5 C 217.948,133.527 220.615,133.194 223.5,133.5C 223.832,175.003 223.499,216.337 222.5,257.5C 222.5,216.5 222.5,175.5 222.5,134.5C 220.167,134.5 217.833,134.5 215.5,134.5 Z"/></g>
<g><path style="opacity:1" fill="#c9cbd5" d="M 233.5,134.5 C 233.167,134.5 232.833,134.5 232.5,134.5C 230.5,134.5 228.5,134.5 226.5,134.5C 226.5,175.5 226.5,216.5 226.5,257.5C 225.501,216.337 225.168,175.003 225.5,133.5C 228.385,133.194 231.052,133.527 233.5,134.5 Z"/></g>
<g><path style="opacity:1" fill="#647194" d="M 70.5,133.5 C 70.5,133.833 70.5,134.167 70.5,134.5C 68.5,134.5 66.5,134.5 64.5,134.5C 64.5,175.5 64.5,216.5 64.5,257.5C 64.1667,257.5 63.8333,257.5 63.5,257.5C 63.5,216.167 63.5,174.833 63.5,133.5C 65.8333,133.5 68.1667,133.5 70.5,133.5 Z"/></g>
<g><path style="opacity:1" fill="#062571" d="M 70.5,134.5 C 70.832,175.67 70.4986,216.67 69.5,257.5C 69.5,216.833 69.5,176.167 69.5,135.5C 68.1667,135.5 66.8333,135.5 65.5,135.5C 65.5,175.833 65.5,216.167 65.5,256.5C 66.791,256.263 67.791,256.596 68.5,257.5C 67.1667,257.5 65.8333,257.5 64.5,257.5C 64.5,216.5 64.5,175.5 64.5,134.5C 66.5,134.5 68.5,134.5 70.5,134.5 Z"/></g>
<g><path style="opacity:1" fill="#2d497e" d="M 69.5,257.5 C 69.1667,257.5 68.8333,257.5 68.5,257.5C 67.791,256.596 66.791,256.263 65.5,256.5C 65.5,216.167 65.5,175.833 65.5,135.5C 66.8333,135.5 68.1667,135.5 69.5,135.5C 69.5,176.167 69.5,216.833 69.5,257.5 Z"/></g>
<g><path style="opacity:1" fill="#2a477d" d="M 74.5,135.5 C 76.5,135.5 78.5,135.5 80.5,135.5C 80.5,175.833 80.5,216.167 80.5,256.5C 78.5,256.5 76.5,256.5 74.5,256.5C 74.5,216.167 74.5,175.833 74.5,135.5 Z"/></g>
<g><path style="opacity:1" fill="#000b6e" d="M 74.5,135.5 C 74.5,135.167 74.5,134.833 74.5,134.5C 76.8333,134.5 79.1667,134.5 81.5,134.5C 81.5,175.5 81.5,216.5 81.5,257.5C 78.9407,257.802 76.6074,257.468 74.5,256.5C 76.5,256.5 78.5,256.5 80.5,256.5C 80.5,216.167 80.5,175.833 80.5,135.5C 78.5,135.5 76.5,135.5 74.5,135.5 Z"/></g>
<g><path style="opacity:1" fill="#00176e" d="M 92.5,134.5 C 92.5,134.833 92.5,135.167 92.5,135.5C 90.5,135.5 88.5,135.5 86.5,135.5C 86.5,175.833 86.5,216.167 86.5,256.5C 88.5,256.5 90.5,256.5 92.5,256.5C 90.3926,257.468 88.0593,257.802 85.5,257.5C 85.5,216.5 85.5,175.5 85.5,134.5C 87.8333,134.5 90.1667,134.5 92.5,134.5 Z"/></g>
<g><path style="opacity:1" fill="#2a477d" d="M 92.5,135.5 C 92.5,175.833 92.5,216.167 92.5,256.5C 90.5,256.5 88.5,256.5 86.5,256.5C 86.5,216.167 86.5,175.833 86.5,135.5C 88.5,135.5 90.5,135.5 92.5,135.5 Z"/></g>
<g><path style="opacity:1" fill="#00016a" d="M 96.5,134.5 C 96.8333,134.5 97.1667,134.5 97.5,134.5C 97.5,134.833 97.5,135.167 97.5,135.5C 97.5,175.833 97.5,216.167 97.5,256.5C 98.8333,256.5 100.167,256.5 101.5,256.5C 101.833,256.5 102.167,256.5 102.5,256.5C 102.5,256.833 102.5,257.167 102.5,257.5C 100.5,257.5 98.5,257.5 96.5,257.5C 96.5,216.5 96.5,175.5 96.5,134.5 Z"/></g>
<g><path style="opacity:1" fill="#304b7e" d="M 97.5,135.5 C 98.8333,135.5 100.167,135.5 101.5,135.5C 101.5,175.833 101.5,216.167 101.5,256.5C 100.167,256.5 98.8333,256.5 97.5,256.5C 97.5,216.167 97.5,175.833 97.5,135.5 Z"/></g>
<g><path style="opacity:1" fill="#003274" d="M 97.5,135.5 C 97.5,135.167 97.5,134.833 97.5,134.5C 99.1667,134.5 100.833,134.5 102.5,134.5C 102.5,175.167 102.5,215.833 102.5,256.5C 102.167,256.5 101.833,256.5 101.5,256.5C 101.5,216.167 101.5,175.833 101.5,135.5C 100.167,135.5 98.8333,135.5 97.5,135.5 Z"/></g>
<g><path style="opacity:1" fill="#697595" d="M 96.5,134.5 C 98.6074,133.532 100.941,133.198 103.5,133.5C 103.832,175.003 103.499,216.337 102.5,257.5C 102.5,257.167 102.5,256.833 102.5,256.5C 102.5,215.833 102.5,175.167 102.5,134.5C 100.833,134.5 99.1667,134.5 97.5,134.5C 97.1667,134.5 96.8333,134.5 96.5,134.5 Z"/></g>
<g><path style="opacity:1" fill="#939aaf" d="M 113.5,257.5 C 113.5,216.5 113.5,175.5 113.5,134.5C 111.5,134.5 109.5,134.5 107.5,134.5C 107.5,175.5 107.5,216.5 107.5,257.5C 106.501,216.337 106.168,175.003 106.5,133.5C 109.167,133.5 111.833,133.5 114.5,133.5C 114.832,175.003 114.499,216.337 113.5,257.5 Z"/></g>
<g><path style="opacity:1" fill="#616e92" d="M 124.5,134.5 C 124.167,134.5 123.833,134.5 123.5,134.5C 121.833,134.5 120.167,134.5 118.5,134.5C 118.5,175.167 118.5,215.833 118.5,256.5C 118.5,256.833 118.5,257.167 118.5,257.5C 117.501,216.337 117.168,175.003 117.5,133.5C 120.059,133.198 122.393,133.532 124.5,134.5 Z"/></g>
<g><path style="opacity:1" fill="#003676" d="M 123.5,134.5 C 123.5,134.833 123.5,135.167 123.5,135.5C 122.167,135.5 120.833,135.5 119.5,135.5C 119.5,175.833 119.5,216.167 119.5,256.5C 119.167,256.5 118.833,256.5 118.5,256.5C 118.5,215.833 118.5,175.167 118.5,134.5C 120.167,134.5 121.833,134.5 123.5,134.5 Z"/></g>
<g><path style="opacity:1" fill="#2d497e" d="M 123.5,135.5 C 123.5,175.833 123.5,216.167 123.5,256.5C 122.167,256.5 120.833,256.5 119.5,256.5C 119.5,216.167 119.5,175.833 119.5,135.5C 120.833,135.5 122.167,135.5 123.5,135.5 Z"/></g>
<g><path style="opacity:1" fill="#000169" d="M 123.5,134.5 C 123.833,134.5 124.167,134.5 124.5,134.5C 124.5,175.5 124.5,216.5 124.5,257.5C 122.5,257.5 120.5,257.5 118.5,257.5C 118.5,257.167 118.5,256.833 118.5,256.5C 118.833,256.5 119.167,256.5 119.5,256.5C 120.833,256.5 122.167,256.5 123.5,256.5C 123.5,216.167 123.5,175.833 123.5,135.5C 123.5,135.167 123.5,134.833 123.5,134.5 Z"/></g>
<g><path style="opacity:1" fill="#cfd2da" d="M 179.5,134.5 C 177.167,134.5 174.833,134.5 172.5,134.5C 172.5,175.5 172.5,216.5 172.5,257.5C 171.501,216.337 171.168,175.003 171.5,133.5C 174.385,133.194 177.052,133.527 179.5,134.5 Z"/></g>
<g><path style="opacity:1" fill="#00156e" d="M 179.5,134.5 C 179.5,134.833 179.5,135.167 179.5,135.5C 177.5,135.5 175.5,135.5 173.5,135.5C 173.5,175.833 173.5,216.167 173.5,256.5C 175.5,256.5 177.5,256.5 179.5,256.5C 177.393,257.468 175.059,257.802 172.5,257.5C 172.5,216.5 172.5,175.5 172.5,134.5C 174.833,134.5 177.167,134.5 179.5,134.5 Z"/></g>
<g><path style="opacity:1" fill="#2d497e" d="M 179.5,135.5 C 179.5,175.833 179.5,216.167 179.5,256.5C 177.5,256.5 175.5,256.5 173.5,256.5C 173.5,216.167 173.5,175.833 173.5,135.5C 175.5,135.5 177.5,135.5 179.5,135.5 Z"/></g>
<g><path style="opacity:1" fill="#858ea8" d="M 189.5,257.5 C 189.5,216.5 189.5,175.5 189.5,134.5C 187.5,134.5 185.5,134.5 183.5,134.5C 183.5,175.5 183.5,216.5 183.5,257.5C 182.501,216.337 182.168,175.003 182.5,133.5C 185.167,133.5 187.833,133.5 190.5,133.5C 190.832,175.003 190.499,216.337 189.5,257.5 Z"/></g>
<g><path style="opacity:1" fill="#031e70" d="M 189.5,257.5 C 187.5,257.5 185.5,257.5 183.5,257.5C 183.5,216.5 183.5,175.5 183.5,134.5C 185.5,134.5 187.5,134.5 189.5,134.5C 189.5,175.5 189.5,216.5 189.5,257.5 Z"/></g>
<g><path style="opacity:1" fill="#324c7f" d="M 184.5,135.5 C 185.833,135.5 187.167,135.5 188.5,135.5C 188.5,175.833 188.5,216.167 188.5,256.5C 187.167,256.5 185.833,256.5 184.5,256.5C 184.5,216.167 184.5,175.833 184.5,135.5 Z"/></g>
<g><path style="opacity:1" fill="#5b6990" d="M 211.5,134.5 C 209.5,134.5 207.5,134.5 205.5,134.5C 205.5,175.5 205.5,216.5 205.5,257.5C 204.501,216.337 204.168,175.003 204.5,133.5C 207.059,133.198 209.393,133.532 211.5,134.5 Z"/></g>
<g><path style="opacity:1" fill="#072772" d="M 211.5,134.5 C 211.832,175.67 211.499,216.67 210.5,257.5C 210.5,216.833 210.5,176.167 210.5,135.5C 209.167,135.5 207.833,135.5 206.5,135.5C 206.5,175.833 206.5,216.167 206.5,256.5C 207.791,256.263 208.791,256.596 209.5,257.5C 208.167,257.5 206.833,257.5 205.5,257.5C 205.5,216.5 205.5,175.5 205.5,134.5C 207.5,134.5 209.5,134.5 211.5,134.5 Z"/></g>
<g><path style="opacity:1" fill="#2b487d" d="M 215.5,135.5 C 217.5,135.5 219.5,135.5 221.5,135.5C 221.5,175.833 221.5,216.167 221.5,256.5C 219.5,256.5 217.5,256.5 215.5,256.5C 215.5,216.167 215.5,175.833 215.5,135.5 Z"/></g>
<g><path style="opacity:1" fill="#002171" d="M 215.5,135.5 C 215.5,135.167 215.5,134.833 215.5,134.5C 217.833,134.5 220.167,134.5 222.5,134.5C 222.5,175.5 222.5,216.5 222.5,257.5C 219.941,257.802 217.607,257.468 215.5,256.5C 217.5,256.5 219.5,256.5 221.5,256.5C 221.5,216.167 221.5,175.833 221.5,135.5C 219.5,135.5 217.5,135.5 215.5,135.5 Z"/></g>
<g><path style="opacity:1" fill="#00026c" d="M 232.5,134.5 C 231.081,135.451 229.415,135.784 227.5,135.5C 227.5,175.833 227.5,216.167 227.5,256.5C 229.415,256.216 231.081,256.549 232.5,257.5C 230.5,257.5 228.5,257.5 226.5,257.5C 226.5,216.5 226.5,175.5 226.5,134.5C 228.5,134.5 230.5,134.5 232.5,134.5 Z"/></g>
<g><path style="opacity:1" fill="#2e4a7e" d="M 232.5,134.5 C 232.833,134.5 233.167,134.5 233.5,134.5C 233.832,175.67 233.499,216.67 232.5,257.5C 231.081,256.549 229.415,256.216 227.5,256.5C 227.5,216.167 227.5,175.833 227.5,135.5C 229.415,135.784 231.081,135.451 232.5,134.5 Z"/></g>
<g><path style="opacity:1" fill="#000e6d" d="M 113.5,257.5 C 111.5,257.5 109.5,257.5 107.5,257.5C 107.5,216.5 107.5,175.5 107.5,134.5C 109.5,134.5 111.5,134.5 113.5,134.5C 113.5,175.5 113.5,216.5 113.5,257.5 Z"/></g>
<g><path style="opacity:1" fill="#334c7f" d="M 108.5,135.5 C 109.833,135.5 111.167,135.5 112.5,135.5C 112.5,175.833 112.5,216.167 112.5,256.5C 111.167,256.5 109.833,256.5 108.5,256.5C 108.5,216.167 108.5,175.833 108.5,135.5 Z"/></g>
<g><path style="opacity:1" fill="#2c487d" d="M 210.5,257.5 C 210.167,257.5 209.833,257.5 209.5,257.5C 208.791,256.596 207.791,256.263 206.5,256.5C 206.5,216.167 206.5,175.833 206.5,135.5C 207.833,135.5 209.167,135.5 210.5,135.5C 210.5,176.167 210.5,216.833 210.5,257.5 Z"/></g>
<g><path style="opacity:1" fill="#9198ad" d="M 200.5,257.5 C 200.5,216.5 200.5,175.5 200.5,134.5C 198.5,134.5 196.5,134.5 194.5,134.5C 194.5,175.5 194.5,216.5 194.5,257.5C 193.501,216.337 193.168,175.003 193.5,133.5C 196.167,133.5 198.833,133.5 201.5,133.5C 201.832,175.003 201.499,216.337 200.5,257.5 Z"/></g>
<g><path style="opacity:1" fill="#00116d" d="M 200.5,257.5 C 198.5,257.5 196.5,257.5 194.5,257.5C 194.5,216.5 194.5,175.5 194.5,134.5C 196.5,134.5 198.5,134.5 200.5,134.5C 200.5,175.5 200.5,216.5 200.5,257.5 Z"/></g>
<g><path style="opacity:1" fill="#395080" d="M 195.5,135.5 C 196.833,135.5 198.167,135.5 199.5,135.5C 199.5,175.833 199.5,216.167 199.5,256.5C 198.167,256.5 196.833,256.5 195.5,256.5C 195.5,216.167 195.5,175.833 195.5,135.5 Z"/></g>
<g><path style="opacity:1" fill="#27467c" d="M 196.5,136.5 C 197.833,155.989 198.5,175.822 198.5,196C 198.167,215.833 197.833,235.667 197.5,255.5C 196.5,215.839 196.167,176.172 196.5,136.5 Z"/></g>
<g><path style="opacity:1" fill="#2b417c" d="M 132.5,266.5 C 106.672,267.498 80.672,267.831 54.5,267.5C 56.6467,265.53 58.98,263.697 61.5,262C 83.1667,261.333 104.833,261.333 126.5,262C 128.747,263.277 130.747,264.777 132.5,266.5 Z"/></g>
<g><path style="opacity:1" fill="#2b417c" d="M 242.5,267.5 C 216.328,267.831 190.328,267.498 164.5,266.5C 166.316,264.863 168.316,263.363 170.5,262C 192.167,261.333 213.833,261.333 235.5,262C 238.02,263.697 240.353,265.53 242.5,267.5 Z"/></g>
<g><path style="opacity:1" fill="#000069" d="M 132.5,266.5 C 133.391,267.11 134.391,267.443 135.5,267.5C 108.167,268.833 80.8333,268.833 53.5,267.5C 53.8333,267.5 54.1667,267.5 54.5,267.5C 80.672,267.831 106.672,267.498 132.5,266.5 Z"/></g>
<g><path style="opacity:1" fill="#000169" d="M 164.5,266.5 C 190.328,267.498 216.328,267.831 242.5,267.5C 242.833,267.5 243.167,267.5 243.5,267.5C 216.167,268.833 188.833,268.833 161.5,267.5C 162.609,267.443 163.609,267.11 164.5,266.5 Z"/></g>
<g><path style="opacity:1" fill="#a5aabb" d="M 53.5,267.5 C 80.8333,268.833 108.167,268.833 135.5,267.5C 136.043,267.56 136.376,267.893 136.5,268.5C 108.173,269.667 79.8392,269.833 51.5,269C 52.0442,268.283 52.7109,267.783 53.5,267.5 Z"/></g>
<g><path style="opacity:1" fill="#a5aabb" d="M 161.5,267.5 C 188.833,268.833 216.167,268.833 243.5,267.5C 244.289,267.783 244.956,268.283 245.5,269C 217.161,269.833 188.827,269.667 160.5,268.5C 160.624,267.893 160.957,267.56 161.5,267.5 Z"/></g>
<g><path style="opacity:1" fill="#2d497e" d="M 140.5,272.5 C 140.5,272.833 140.5,273.167 140.5,273.5C 139.549,274.919 139.216,276.585 139.5,278.5C 108.833,278.5 78.1667,278.5 47.5,278.5C 47.5,276.5 47.5,274.5 47.5,272.5C 78.5,272.5 109.5,272.5 140.5,272.5 Z"/></g>
<g><path style="opacity:1" fill="#2d497e" d="M 156.5,273.5 C 156.5,273.167 156.5,272.833 156.5,272.5C 187.5,272.5 218.5,272.5 249.5,272.5C 249.5,274.5 249.5,276.5 249.5,278.5C 218.833,278.5 188.167,278.5 157.5,278.5C 157.784,276.585 157.451,274.919 156.5,273.5 Z"/></g>
<g><path style="opacity:1" fill="#00006b" d="M 140.5,273.5 C 140.5,275.5 140.5,277.5 140.5,279.5C 109.5,279.5 78.5,279.5 47.5,279.5C 47.5,279.167 47.5,278.833 47.5,278.5C 78.1667,278.5 108.833,278.5 139.5,278.5C 139.216,276.585 139.549,274.919 140.5,273.5 Z"/></g>
<g><path style="opacity:1" fill="#00006b" d="M 156.5,273.5 C 157.451,274.919 157.784,276.585 157.5,278.5C 188.167,278.5 218.833,278.5 249.5,278.5C 249.5,278.833 249.5,279.167 249.5,279.5C 218.5,279.5 187.5,279.5 156.5,279.5C 156.5,277.5 156.5,275.5 156.5,273.5 Z"/></g>
<g><path style="opacity:1" fill="#9ea4b5" d="M 140.5,272.5 C 141.473,274.948 141.806,277.615 141.5,280.5C 109.996,280.832 78.6622,280.498 47.5,279.5C 78.5,279.5 109.5,279.5 140.5,279.5C 140.5,277.5 140.5,275.5 140.5,273.5C 140.5,273.167 140.5,272.833 140.5,272.5 Z"/></g>
<g><path style="opacity:1" fill="#a0a6b6" d="M 156.5,272.5 C 156.5,272.833 156.5,273.167 156.5,273.5C 156.5,275.5 156.5,277.5 156.5,279.5C 187.5,279.5 218.5,279.5 249.5,279.5C 218.338,280.498 187.004,280.832 155.5,280.5C 155.194,277.615 155.527,274.948 156.5,272.5 Z"/></g>
</svg>
